<!-- filepath: /C:/Users/User/Desktop/Digital Payment Wallet/Frontend/src/assets/react.svg -->
<svg xmlns="http://www.w3.org/2000/svg" viewBox="0 0 841.9 595.3">
  <g fill="#61DAFB">
    <path d="M666.3 296.5c0 45.7-10.5 87.5-28.9 124.1 19.1 17.1 35.4 36.9 48.6 59.3 16.6-34.8 26-73.2 26-113.4 0-40.2-9.4-78.6-26-113.4-13.2 22.4-29.5 42.2-48.6 59.3 18.4 36.6 28.9 78.4 28.9 124.1zM520.5 78.1c-19.1 17.1-35.4 36.9-48.6 59.3 36.6 18.4 78.4 28.9 124.1 28.9 45.7 0 87.5-10.5 124.1-28.9-13.2-22.4-29.5-42.2-48.6-59.3-36.6 18.4-78.4 28.9-124.1 28.9-45.7 0-87.5-10.5-124.1-28.9zM320.5 78.1c-36.6 18.4-78.4 28.9-124.1 28.9-45.7 0-87.5-10.5-124.1-28.9-13.2 22.4-29.5 42.2-48.6 59.3 16.6 34.8 26 73.2 26 113.4 0 40.2-9.4 78.6-26 113.4 13.2 22.4 29.5 42.2 48.6 59.3 36.6-18.4 78.4-28.9 124.1-28.9 45.7 0 87.5 10.5 124.1 28.9 13.2-22.4 29.5-42.2 48.6-59.3-16.6-34.8-26-73.2-26-113.4 0-40.2 9.4-78.6 26-113.4-13.2-22.4-29.5-42.2-48.6-59.3zM320.5 517.2c-19.1-17.1-35.4-36.9-48.6-59.3-36.6 18.4-78.4 28.9-124.1 28.9-45.7 0-87.5-10.5-124.1-28.9 13.2 22.4 29.5 42.2 48.6 59.3 36.6-18.4 78.4-28.9 124.1-28.9 45.7 0 87.5 10.5 124.1 28.9zM520.5 517.2c36.6-18.4 78.4-28.9 124.1-28.9 45.7 0 87.5 10.5 124.1 28.9 13.2-22.4 29.5-42.2 48.6-59.3-16.6-34.8-26-73.2-26-113.4 0-40.2 9.4-78.6 26-113.4-13.2-22.4-29.5-42.2-48.6-59.3-36.6 18.4-78.4 28.9-124.1 28.9-45.7 0-87.5-10.5-124.1-28.9-13.2 22.4-29.5 42.2-48.6 59.3 16.6 34.8 26 73.2 26 113.4 0 40.2-9.4 78.6-26 113.4 13.2 22.4 29.5 42.2 48.6 59.3zM420.9 296.5c0-45.7-10.5-87.5-28.9-124.1-19.1 17.1-35.4 36.9-48.6 59.3 18.4 36.6 28.9 78.4 28.9 124.1 0 45.7-10.5 87.5-28.9 124.1 13.2 22.4 29.5 42.2 48.6 59.3 18.4-36.6 28.9-78.4 28.9-124.1zM420.9 78.1c-36.6 18.4-78.4 28.9-124.1 28.9-45.7 0-87.5-10.5-124.1-28.9-13.2 22.4-29.5 42.2-48.6 59.3 16.6 34.8 26 73.2 26 113.4 0 40.2-9.4 78.6-26 113.4 13.2 22.4 29.5 42.2 48.6 59.3 36.6-18.4 78.4-28.9 124.1-28.9 45.7 0 87.5 10.5 124.1 28.9 13.2-22.4 29.5-42.2 48.6-59.3-16.6-34.8-26-73.2-26-113.4 0-40.2 9.4-78.6 26-113.4-13.2-22.4-29.5-42.2-48.6-59.3zM420.9 517.2c-19.1-17.1-35.4-36.9-48.6-59.3-36.6 18.4-78.4 28.9-124.1 28.9-45.7 0-87.5-10.5-124.1-28.9 13.2 22.4 29.5 42.2 48.6 59.3 36.6-18.4 78.4-28.9 124.1-28.9 45.7 0 87.5 10.5 124.1 28.9zM520.5 517.2c36.6-18.4 78.4-28.9 124.1-28.9 45.7 0 87.5 10.5 124.1 28.9 13.2-22.4 29.5-42.2 48.6-59.3-16.6-34.8-26-73.2-26-113.4 0-40.2 9.4-78.6 26-113.4-13.2-22.4-29.5-42.2-48.6-59.3-36.6 18.4-78.4 28.9-124.1 28.9-45.7 0-87.5-10.5-124.1-28.9-13.2 22.4-29.5 42.2-48.6 59.3 16.6 34.8 26 73.2 26 113.4 0 40.2-9.4 78.6-26 113.4 13.2 22.4 29.5 42.2 48.6 59.3zM420.9 296.5c0-45.7-10.5-87.5-28.9-124.1-19.1 17.1-35.4 36.9-48.6 59.3 18.4 36.6 28.9 78.4 28.9 124.1 0 45.7-10.5 87.5-28.9 124.1 13.2 22.4 29.5 42.2 48.6 59.3 18.4-36.6 28.9-78.4 28.9-124.1z"/>
  </g>
</svg>